<svg xmlns="http://www.w3.org/2000/svg" viewBox="0 0 256 256"><defs><style>.cls-1{fill:#593b1c;}.cls-2{fill:#fff;}</style></defs><g id="レイヤー_2" data-name="レイヤー 2"><g id="レイヤー_1-2" data-name="レイヤー 1"><circle class="cls-1" cx="128" cy="128" r="128"/><path class="cls-2" d="M159.24,53.27H96.76A42.24,42.24,0,0,0,54.52,95.51v65a42.24,42.24,0,0,0,42.24,42.24h62.48a42.24,42.24,0,0,0,42.24-42.24v-65A42.24,42.24,0,0,0,159.24,53.27ZM69.52,95.51A27.27,27.27,0,0,1,96.76,68.27h62.48a27.27,27.27,0,0,1,27.24,27.24v65a27.27,27.27,0,0,1-27.24,27.24H96.76a27.27,27.27,0,0,1-27.24-27.24Z"/><path class="cls-2" d="M128,166.49A38.49,38.49,0,1,0,89.51,128,38.54,38.54,0,0,0,128,166.49Zm0-65A26.49,26.49,0,1,1,101.51,128,26.52,26.52,0,0,1,128,101.51Z"/><circle class="cls-2" cx="167.62" cy="88.39" r="8.62"/></g></g></svg>