<svg xmlns="http://www.w3.org/2000/svg" viewBox="0 0 256 256"><defs><style>.cls-1{fill:#593b1c;}.cls-2{fill:#fff;}</style></defs><g id="レイヤー_2" data-name="レイヤー 2"><g id="レイヤー_1-2" data-name="レイヤー 1"><circle class="cls-1" cx="128" cy="128" r="128"/><path class="cls-2" d="M208.13,80.29c-1.65-4.38-6.84-8.8-11.21-9.7-47.58-7.72-90.13-7.74-137.84,0-4.37.9-9.55,5.32-11.21,9.7a132.29,132.29,0,0,0,0,95.42c1.66,4.38,6.84,8.79,11.21,9.7,47.71,7.74,90.26,7.72,137.84,0,4.37-.91,9.55-5.32,11.21-9.7A132.29,132.29,0,0,0,208.13,80.29ZM155.77,131c-15.34,8.75-23.19,13.39-38,22.06a3.51,3.51,0,0,1-5.2-3.06c-.4-17.58-.4-26.38,0-44a3.53,3.53,0,0,1,5.2-3.09c14.82,8.68,22.67,13.33,38,22.09A3.41,3.41,0,0,1,155.77,131Z"/></g></g></svg>